<?xml version="1.0" standalone="no"?>
<!DOCTYPE svg PUBLIC "-//W3C//DTD SVG 1.1//EN" "http://www.w3.org/Graphics/SVG/1.1/DTD/svg11.dtd" >
<svg xmlns="http://www.w3.org/2000/svg" xmlns:xlink="http://www.w3.org/1999/xlink" version="1.1">
<metadata>
Created by FontForge 20170731 at Mon May  9 11:05:34 2022
 By Aleksey,,,
Copyright 2019 CoType Foundry. All Rights Reserved
</metadata>
<defs>
<font id="RMNeueTRIAL-Bold" horiz-adv-x="1191" >
  <font-face 
    font-family="RM Neue TRIAL"
    font-weight="700"
    font-stretch="normal"
    units-per-em="2048"
    panose-1="0 0 8 0 0 0 0 0 0 0"
    ascent="1536"
    descent="-512"
    x-height="1010"
    cap-height="1434"
    bbox="-43 -459 1935 1475"
    underline-thickness="198"
    underline-position="-521"
    unicode-range="U+0020-007A"
  />
<missing-glyph horiz-adv-x="1269" 
d="M123 1475h1024v-1698h-1024v1698zM444 1294q-84 0 -129 -49t-45 -135t45 -135t129 -49q66 0 106.5 38t45.5 99h-94q-13 -59 -62 -59q-71 0 -71 106q0 107 71 107q48 0 62 -62h94q-5 63 -45.5 101t-106.5 38zM807 1294q-81 0 -129.5 -52t-48.5 -132q0 -81 48 -132.5
t130 -51.5q81 0 129.5 51.5t48.5 132.5q0 80 -49 132t-129 52zM807 1004q-39 0 -59.5 29.5t-20.5 76.5q0 48 21 77.5t59 29.5t59 -29.5t21 -77.5q0 -47 -20.5 -76.5t-59.5 -29.5zM291 819v-82h100v-282h96v282h103v82h-299zM854 590l131 229h-106l-72 -133l-68 133h-112
l131 -229v-135h96v135zM473 94q62 0 99.5 34t37.5 91q0 58 -37.5 92.5t-99.5 34.5h-151v-364h94v112h57zM948 -18v81h-160v64h123v76h-123v61h154v82h-250v-364h256zM465 268q22 0 35.5 -13t13.5 -36q0 -22 -13.5 -34.5t-35.5 -12.5h-49v96h49z" />
    <glyph glyph-name=".notdef" horiz-adv-x="1269" 
d="M123 1475h1024v-1698h-1024v1698zM444 1294q-84 0 -129 -49t-45 -135t45 -135t129 -49q66 0 106.5 38t45.5 99h-94q-13 -59 -62 -59q-71 0 -71 106q0 107 71 107q48 0 62 -62h94q-5 63 -45.5 101t-106.5 38zM807 1294q-81 0 -129.5 -52t-48.5 -132q0 -81 48 -132.5
t130 -51.5q81 0 129.5 51.5t48.5 132.5q0 80 -49 132t-129 52zM807 1004q-39 0 -59.5 29.5t-20.5 76.5q0 48 21 77.5t59 29.5t59 -29.5t21 -77.5q0 -47 -20.5 -76.5t-59.5 -29.5zM291 819v-82h100v-282h96v282h103v82h-299zM854 590l131 229h-106l-72 -133l-68 133h-112
l131 -229v-135h96v135zM473 94q62 0 99.5 34t37.5 91q0 58 -37.5 92.5t-99.5 34.5h-151v-364h94v112h57zM948 -18v81h-160v64h123v76h-123v61h154v82h-250v-364h256zM465 268q22 0 35.5 -13t13.5 -36q0 -22 -13.5 -34.5t-35.5 -12.5h-49v96h49z" />
    <glyph glyph-name=".null" horiz-adv-x="0" 
 />
    <glyph glyph-name="nonmarkingreturn" horiz-adv-x="682" 
 />
    <glyph glyph-name="space" unicode=" " horiz-adv-x="514" 
 />
    <glyph glyph-name="comma" unicode="," horiz-adv-x="507" 
d="M162 -262q56 125 59 262h-112v311h290v-188q0 -134 -16 -220t-59 -165h-162z" />
    <glyph glyph-name="hyphen" unicode="-" horiz-adv-x="763" 
d="M82 467v240h600v-240h-600z" />
    <glyph glyph-name="period" unicode="." horiz-adv-x="509" 
d="M109 0v311h292v-311h-292z" />
    <glyph glyph-name="zero" unicode="0" horiz-adv-x="1277" 
d="M639 -25q-258 0 -403.5 196.5t-145.5 545.5t145.5 545t403.5 196t403.5 -196t145.5 -545t-145.5 -545.5t-403.5 -196.5zM639 229q123 0 192.5 128.5t69.5 359.5t-69.5 359t-192.5 128t-191.5 -128t-68.5 -359q0 -232 68.5 -360t191.5 -128z" />
    <glyph glyph-name="one" unicode="1" horiz-adv-x="747" 
d="M291 0v993h-256v207q160 2 232 53.5t87 180.5h224v-1434h-287z" />
    <glyph glyph-name="two" unicode="2" horiz-adv-x="1099" 
d="M41 0v242q191 134 313 230t213.5 188.5t131.5 172t40 160.5q0 95 -52.5 150t-143.5 55q-95 0 -149 -58.5t-60 -162.5h-289q6 215 144.5 348t355.5 133q229 0 356 -120.5t127 -313.5q0 -89 -28.5 -172t-74 -151t-126 -146t-159 -140.5t-198.5 -150.5h605v-264h-1006z" />
    <glyph glyph-name="three" unicode="3" horiz-adv-x="1185" 
d="M582 -25q-240 0 -383.5 111t-161.5 330h287q24 -102 87.5 -145.5t168.5 -43.5q101 0 164 53.5t63 151.5q0 199 -279 199h-161v196l331 349h-604v258h961v-232l-342 -356q197 -39 290 -134.5t93 -271.5q0 -212 -143 -338.5t-371 -126.5z" />
    <glyph glyph-name="four" unicode="4" horiz-adv-x="1183" 
d="M674 0v299h-629v244l608 891h301v-879h187v-256h-187v-299h-280zM336 555h338v506z" />
    <glyph glyph-name="five" unicode="5" horiz-adv-x="1175" 
d="M598 -25q-212 0 -341 107.5t-159 288.5h289q42 -142 203 -142q106 0 166.5 66.5t60.5 183.5q0 113 -60.5 178.5t-164.5 65.5q-82 0 -133 -38.5t-70 -100.5h-268v850h909v-265h-651v-313q40 57 110 86t156 29q141 0 246.5 -66t159 -177t53.5 -249q0 -219 -141.5 -361.5
t-364.5 -142.5z" />
    <glyph glyph-name="six" unicode="6" horiz-adv-x="1228" 
d="M641 -25q-87 0 -165.5 24.5t-149.5 79t-123 135t-82.5 200t-30.5 266.5q0 366 151 572t410 206q209 0 333 -99.5t157 -281.5h-287q-48 142 -199 142q-143 0 -207 -112.5t-69 -332.5q103 160 319 160q89 0 170 -31t145.5 -89t103 -149.5t38.5 -203.5q0 -90 -32.5 -175
t-94 -155t-162 -113t-225.5 -43zM635 215q106 0 170.5 65.5t64.5 174.5q0 110 -64.5 174.5t-170.5 64.5q-105 0 -169.5 -63.5t-64.5 -169.5q0 -112 64.5 -179t169.5 -67z" />
    <glyph glyph-name="seven" unicode="7" horiz-adv-x="1040" 
d="M141 0l535 1167h-653v267h968v-240l-536 -1194h-314z" />
    <glyph glyph-name="eight" unicode="8" horiz-adv-x="1234" 
d="M616 -25q-236 0 -381 116.5t-145 311.5q0 245 234 338q-97 41 -148 120.5t-51 189.5q0 177 134.5 292t356.5 115q223 0 358.5 -115t135.5 -292q0 -110 -51 -189.5t-148 -120.5q234 -93 234 -338q0 -195 -146 -311.5t-383 -116.5zM616 854q93 0 151 49.5t58 132.5
q0 82 -57.5 130t-151.5 48q-93 0 -150.5 -48t-57.5 -130q0 -83 57.5 -132.5t150.5 -49.5zM616 223q106 0 173 53.5t67 143.5q0 91 -67 146t-173 55q-105 0 -171 -55t-66 -146q0 -90 66 -143.5t171 -53.5z" />
    <glyph glyph-name="nine" unicode="9" horiz-adv-x="1228" 
d="M578 -25q-209 0 -333 99.5t-157 281.5h287q48 -141 198 -141q142 0 207 112.5t70 331.5q-105 -159 -320 -159q-89 0 -170 31t-145 89t-102.5 149.5t-38.5 203.5q0 90 32.5 174.5t94 155t162 113t225.5 42.5q87 0 165.5 -24.5t149.5 -79t123 -134.5t82.5 -199.5
t30.5 -266.5q0 -366 -151 -572.5t-410 -206.5zM594 739q105 0 169 63.5t64 170.5q0 112 -64 179t-169 67q-106 0 -171 -66t-65 -174q0 -110 65 -175t171 -65z" />
    <glyph glyph-name="A" unicode="A" horiz-adv-x="1337" 
d="M1036 0l-112 328h-518l-113 -328h-297l532 1434h281l530 -1434h-303zM489 580h347l-174 501z" />
    <glyph glyph-name="B" unicode="B" horiz-adv-x="1374" 
d="M150 0v1434h612q109 0 193 -18.5t151 -60.5t103 -116.5t36 -179.5q0 -102 -54 -185t-151 -122q128 -42 191 -121.5t63 -206.5q0 -212 -135.5 -318t-390.5 -106h-618zM436 858h344q85 0 134 43t49 125q0 81 -48.5 121.5t-134.5 40.5h-344v-330zM436 246h340q232 0 232 184
q0 95 -61.5 140.5t-170.5 45.5h-340v-370z" />
    <glyph glyph-name="C" unicode="C" horiz-adv-x="1519" 
d="M780 -25q-310 0 -500 204t-190 542q0 215 86.5 382.5t244 261t359.5 93.5q253 0 428.5 -142.5t225.5 -383.5h-297q-38 132 -130 201t-227 69q-184 0 -293.5 -132t-109.5 -353q0 -222 109.5 -354t293.5 -132q134 0 226.5 74.5t132.5 216.5h295q-53 -252 -227.5 -399.5
t-426.5 -147.5z" />
    <glyph glyph-name="D" unicode="D" horiz-adv-x="1486" 
d="M150 0v1434h483q352 0 557 -189.5t205 -521.5q0 -336 -200 -529.5t-542 -193.5h-503zM436 266h209q217 0 340 120t123 333q0 214 -122.5 331t-340.5 117h-209v-901z" />
    <glyph glyph-name="E" unicode="E" horiz-adv-x="1280" 
d="M150 0v1434h1036v-267h-750v-301h651v-266h-651v-334h772v-266h-1058z" />
    <glyph glyph-name="F" unicode="F" horiz-adv-x="1193" 
d="M150 0v1434h989v-267h-703v-352h627v-266h-627v-549h-286z" />
    <glyph glyph-name="G" unicode="G" horiz-adv-x="1542" 
d="M90 721q0 215 88.5 382.5t249.5 261t367 93.5q254 0 430 -137t223 -369h-295q-36 123 -130 186.5t-230 63.5q-189 0 -302.5 -132t-113.5 -353t116.5 -353.5t307.5 -132.5q141 0 233 73.5t127 215.5h-354v250h663v-72q0 -167 -53 -305t-145 -228.5t-216.5 -140
t-267.5 -49.5q-311 0 -504.5 205t-193.5 541z" />
    <glyph glyph-name="H" unicode="H" horiz-adv-x="1484" 
d="M150 0v1434h286v-598h613v598h286v-1434h-286v569h-613v-569h-286z" />
    <glyph glyph-name="I" unicode="I" horiz-adv-x="585" 
d="M150 0v1434h286v-1434h-286z" />
    <glyph glyph-name="J" unicode="J" horiz-adv-x="815" 
d="M258 -25q-128 0 -240 37v269q89 -39 179 -39q99 0 141.5 48.5t42.5 170.5v973h287v-1018q0 -223 -101.5 -332t-308.5 -109z" />
    <glyph glyph-name="K" unicode="K" horiz-adv-x="1370" 
d="M1382 0h-348l-450 618l-148 -157v-461h-286v1434h286v-613l561 613h363l-576 -609z" />
    <glyph glyph-name="L" unicode="L" horiz-adv-x="1118" 
d="M150 0v1434h286v-1168h647v-266h-933z" />
    <glyph glyph-name="M" unicode="M" horiz-adv-x="1773" 
d="M150 0v1434h301l444 -830l442 830h289v-1434h-289v926l-364 -678h-172l-365 678v-926h-286z" />
    <glyph glyph-name="N" unicode="N" horiz-adv-x="1474" 
d="M150 0v1434h247l658 -928v928h270v-1434h-248l-659 928v-928h-268z" />
    <glyph glyph-name="O" unicode="O" horiz-adv-x="1572" 
d="M784 -25q-311 0 -502.5 205t-191.5 541q0 215 88 382.5t248 261t365 93.5q308 0 500 -204t192 -533q0 -217 -88 -387t-247.5 -264.5t-363.5 -94.5zM786 231q187 0 298.5 132.5t111.5 353.5t-111.5 353t-298.5 132t-298 -131.5t-111 -353.5t111 -354t298 -132z" />
    <glyph glyph-name="P" unicode="P" horiz-adv-x="1310" 
d="M150 0v1434h573q240 0 383 -130t143 -358t-143 -358.5t-383 -130.5h-287v-457h-286zM436 719h291q112 0 174 60.5t62 166.5q0 105 -62 165t-174 60h-291v-452z" />
    <glyph glyph-name="Q" unicode="Q" horiz-adv-x="1572" 
d="M1532 0h-307l-70 76q-159 -101 -371 -101q-311 0 -502.5 205t-191.5 541q0 215 88 382.5t248 261t365 93.5q308 0 500 -204t192 -533q0 -295 -158 -496zM786 231q105 0 187 43l-283 306h307l136 -146q63 117 63 283q0 221 -111.5 353t-298.5 132t-298 -131.5t-111 -353.5
t111 -354t298 -132z" />
    <glyph glyph-name="R" unicode="R" horiz-adv-x="1374" 
d="M1348 0h-344l-355 506h-213v-506h-286v1434h600q240 0 382 -124.5t142 -342.5q0 -162 -78.5 -275.5t-218.5 -163.5zM436 1171v-417h320q112 0 171.5 57t59.5 156q0 95 -59.5 149.5t-171.5 54.5h-320z" />
    <glyph glyph-name="S" unicode="S" horiz-adv-x="1310" 
d="M668 -25q-284 0 -444.5 128.5t-164.5 369.5h287q9 -250 322 -250q135 0 211.5 45t76.5 133q0 69 -47 107.5t-182 69.5l-190 40q-238 54 -339.5 150t-101.5 266q0 89 34 165t99 134t169 91.5t235 33.5q271 0 416.5 -123.5t156.5 -345.5h-286q-12 221 -287 221
q-118 0 -183 -39t-65 -114q0 -67 45.5 -103.5t179.5 -66.5l189 -43q241 -55 343.5 -151.5t102.5 -266.5q0 -147 -75 -250t-203 -152t-299 -49z" />
    <glyph glyph-name="T" unicode="T" horiz-adv-x="1185" 
d="M449 0v1167h-414v267h1116v-267h-416v-1167h-286z" />
    <glyph glyph-name="U" unicode="U" horiz-adv-x="1425" 
d="M717 -25q-282 0 -435 156t-153 444v859h287v-848q0 -344 297 -344t297 344v848h286v-859q0 -288 -150.5 -444t-428.5 -156z" />
    <glyph glyph-name="V" unicode="V" horiz-adv-x="1263" 
d="M477 0l-487 1434h303l348 -1072l334 1072h299l-490 -1434h-307z" />
    <glyph glyph-name="W" unicode="W" horiz-adv-x="1943" 
d="M391 0l-383 1434h301l242 -1031l283 1031h280l283 -1031l241 1031h297l-383 -1434h-299l-284 1012l-279 -1012h-299z" />
    <glyph glyph-name="X" unicode="X" horiz-adv-x="1325" 
d="M8 0l481 739l-450 695h338l293 -461l286 461h330l-452 -695l483 -739h-340l-326 500l-315 -500h-328z" />
    <glyph glyph-name="Y" unicode="Y" horiz-adv-x="1273" 
d="M485 0v549l-505 885h325l332 -590l340 590h315l-520 -885v-549h-287z" />
    <glyph glyph-name="Z" unicode="Z" horiz-adv-x="1249" 
d="M55 0v240l742 927h-707v267h1079v-240l-761 -928h786v-266h-1139z" />
    <glyph glyph-name="a" unicode="a" horiz-adv-x="1099" 
d="M416 -25q-166 0 -254 77t-88 220q0 62 22.5 111.5t58.5 81.5t89.5 57t105.5 38.5t117 23.5l246 41v34q0 87 -41 126.5t-127 39.5q-80 0 -123.5 -36t-48.5 -101h-275q2 86 39 153t100 108t143.5 62t174.5 21q227 0 329.5 -102.5t102.5 -335.5v-594h-260v131
q-104 -156 -311 -156zM492 184q91 0 156 55t65 146v64l-178 -29q-96 -15 -141.5 -43t-45.5 -88q0 -105 144 -105z" />
    <glyph glyph-name="b" unicode="b" 
d="M674 -25q-184 0 -289 131v-106h-260v1434h276v-529q104 127 275 127q206 0 329 -143.5t123 -382.5q0 -243 -123.5 -387t-330.5 -144zM623 207q109 0 170 78.5t61 220.5t-61 219.5t-170 77.5q-108 0 -169 -77.5t-61 -219.5t61 -220.5t169 -78.5z" />
    <glyph glyph-name="c" unicode="c" horiz-adv-x="1089" 
d="M561 -25q-226 0 -362 144.5t-136 386.5q0 239 136 382.5t362 143.5q189 0 316.5 -99t160.5 -278h-280q-50 148 -197 148q-105 0 -164 -77.5t-59 -219.5t59 -220.5t164 -78.5q76 0 129 42.5t74 125.5h278q-31 -187 -159.5 -293.5t-321.5 -106.5z" />
    <glyph glyph-name="d" unicode="d" 
d="M514 -25q-206 0 -328.5 144t-122.5 387q0 238 125 382t326 144q169 0 277 -117v519h274v-1434h-258v117q-124 -142 -293 -142zM567 207q110 0 171 77.5t61 221.5q0 142 -61.5 219.5t-170.5 77.5q-108 0 -168.5 -77.5t-60.5 -219.5q0 -144 60.5 -221.5t168.5 -77.5z" />
    <glyph glyph-name="e" unicode="e" horiz-adv-x="1114" 
d="M776 324h281q-27 -97 -79 -167.5t-118.5 -108.5t-136 -55.5t-145.5 -17.5q-234 0 -374.5 144.5t-140.5 386.5q0 110 28.5 199.5t76 149t112.5 100.5t135.5 59t147.5 18q230 0 360 -148t130 -384v-51h-707q12 -126 73 -188t159 -62q155 0 198 125zM563 821q-80 0 -136 -49
t-75 -154h408q-7 102 -58.5 152.5t-138.5 50.5z" />
    <glyph glyph-name="f" unicode="f" horiz-adv-x="641" 
d="M154 0v780h-134v230h134v157q0 142 86.5 216.5t234.5 74.5q80 0 160 -22v-228q-47 15 -90 15q-59 0 -88 -24t-29 -87v-102h197v-230h-197v-780h-274z" />
    <glyph glyph-name="g" unicode="g" 
d="M590 -459q-218 0 -352 100.5t-140 276.5h291q10 -84 59 -119t142 -35q107 0 154 61t47 193v99q-105 -125 -271 -125q-209 0 -333 141t-124 379t124 379t333 141q173 0 287 -129v107h258v-979q0 -241 -119.5 -365.5t-355.5 -124.5zM567 223q110 0 171 75t61 214t-61.5 215
t-170.5 76q-108 0 -168.5 -76t-60.5 -215q0 -138 60.5 -213.5t168.5 -75.5z" />
    <glyph glyph-name="h" unicode="h" horiz-adv-x="1157" 
d="M125 0v1434h276v-541q96 139 279 139q184 0 274 -103.5t90 -328.5v-600h-274v578q0 120 -41.5 169.5t-130.5 49.5q-96 0 -146.5 -63.5t-50.5 -184.5v-549h-276z" />
    <glyph glyph-name="i" unicode="i" horiz-adv-x="526" 
d="M125 1174v247h281v-247h-281zM125 0v1010h276v-1010h-276z" />
    <glyph glyph-name="j" unicode="j" horiz-adv-x="526" 
d="M125 1174v247h281v-247h-281zM117 -459q-80 0 -160 13v223q41 -8 74 -8q54 0 74 26.5t20 91.5v1123h276v-1172q0 -156 -72.5 -226.5t-211.5 -70.5z" />
    <glyph glyph-name="k" unicode="k" horiz-adv-x="1087" 
d="M125 0v1434h276v-803l361 379h338l-457 -455l467 -555h-344l-365 426v-426h-276z" />
    <glyph glyph-name="l" unicode="l" horiz-adv-x="559" 
d="M426 -16q-157 0 -229 68.5t-72 207.5v1174h276v-1110q0 -56 19 -80.5t67 -24.5q29 0 45 2v-221q-53 -16 -106 -16z" />
    <glyph glyph-name="m" unicode="m" horiz-adv-x="1755" 
d="M1272 1032q187 0 278.5 -103.5t91.5 -328.5v-600h-274v588q0 114 -39 161.5t-123 47.5q-88 0 -136 -62.5t-48 -181.5v-553h-274v588q0 113 -40 161t-122 48q-90 0 -137.5 -62.5t-47.5 -181.5v-553h-276v1010h260v-123q104 145 277 145q101 0 173 -36t121 -119
q112 155 316 155z" />
    <glyph glyph-name="n" unicode="n" horiz-adv-x="1157" 
d="M125 0v1010h260v-123q104 145 289 145q189 0 279.5 -103t90.5 -329v-600h-274v578q0 120 -41.5 169.5t-130.5 49.5q-96 0 -146.5 -63.5t-50.5 -184.5v-549h-276z" />
    <glyph glyph-name="o" unicode="o" horiz-adv-x="1136" 
d="M569 -25q-229 0 -367.5 144.5t-138.5 386.5q0 239 138.5 382.5t367.5 143.5q230 0 368 -143.5t138 -382.5q0 -243 -137.5 -387t-368.5 -144zM569 207q108 0 169 78.5t61 220.5t-61 219.5t-169 77.5q-109 0 -170 -77.5t-61 -219.5t61 -220.5t170 -78.5z" />
    <glyph glyph-name="p" unicode="p" 
d="M125 -436v1446h260v-117q115 139 293 139q205 0 327.5 -143.5t122.5 -382.5q0 -241 -125 -386t-327 -145q-172 0 -275 119v-530h-276zM623 207q110 0 170.5 77.5t60.5 221.5t-60.5 220.5t-170.5 76.5q-108 0 -169 -77t-61 -220t61 -221t169 -78z" />
    <glyph glyph-name="q" unicode="q" 
d="M791 -436v540q-99 -129 -275 -129q-207 0 -330 144t-123 387q0 240 123 383t332 143q184 0 289 -129v107h258v-1446h-274zM567 207q110 0 171 77.5t61 221.5q0 141 -61.5 219t-170.5 78q-108 0 -168.5 -78t-60.5 -219q0 -144 60.5 -221.5t168.5 -77.5z" />
    <glyph glyph-name="r" unicode="r" horiz-adv-x="743" 
d="M125 0v1010h260v-148q81 160 244 160q51 0 82 -8v-256q-57 8 -103 8q-100 0 -153.5 -67t-53.5 -203v-496h-276z" />
    <glyph glyph-name="s" unicode="s" horiz-adv-x="1026" 
d="M516 -25q-210 0 -328 89t-133 260h271q12 -76 60 -111t138 -35q170 0 170 101q0 40 -33.5 65.5t-111.5 42.5l-84 21q-202 45 -290.5 115t-88.5 194q0 154 108.5 234.5t305.5 80.5q214 0 327.5 -85.5t124.5 -252.5h-270q-8 137 -172 137q-152 0 -152 -96q0 -39 32.5 -64
t109.5 -42l86 -19q201 -45 291 -116.5t90 -196.5q0 -156 -119 -239t-332 -83z" />
    <glyph glyph-name="t" unicode="t" horiz-adv-x="671" 
d="M461 -20q-158 0 -233.5 76t-75.5 206v518h-132v230h132v282h274v-282h195v-230h-195v-452q0 -60 22.5 -86.5t83.5 -26.5q35 0 89 14v-227q-77 -22 -160 -22z" />
    <glyph glyph-name="u" unicode="u" horiz-adv-x="1146" 
d="M479 -20q-186 0 -276 104t-90 330v596h274v-576q0 -121 41 -171t129 -50q90 0 139 64t49 186v547h277v-1010h-260v127q-100 -147 -283 -147z" />
    <glyph glyph-name="v" unicode="v" horiz-adv-x="972" 
d="M352 0l-366 1010h290l216 -674l217 674h280l-364 -1010h-273z" />
    <glyph glyph-name="w" unicode="w" horiz-adv-x="1499" 
d="M311 0l-311 1010h285l176 -635l182 635h225l183 -635l174 635h276l-321 -1010h-248l-182 666l-193 -666h-246z" />
    <glyph glyph-name="x" unicode="x" horiz-adv-x="995" 
d="M4 0l334 520l-313 490h317l162 -281l158 281h311l-318 -488l336 -522h-317l-180 309l-181 -309h-309z" />
    <glyph glyph-name="y" unicode="y" horiz-adv-x="976" 
d="M197 -459q-93 0 -164 19l16 229q43 -14 109 -14q56 0 86 22.5t53 85.5l51 140l-362 987h290l220 -674l215 674h280l-434 -1162q-66 -173 -144.5 -240t-215.5 -67z" />
    <glyph glyph-name="z" unicode="z" horiz-adv-x="960" 
d="M51 0v205l494 567h-463v238h817v-205l-493 -569h501v-236h-856z" />
    </font>
</defs>
</svg>
